{
	"patcher" : 	{
		"fileversion" : 1,
		"appversion" : 		{
			"major" : 8,
			"minor" : 3,
			"revision" : 1,
			"architecture" : "x64",
			"modernui" : 1
		}
,
		"classnamespace" : "box",
		"rect" : [ 271.0, 268.0, 984.0, 732.0 ],
		"bglocked" : 0,
		"openinpresentation" : 1,
		"default_fontsize" : 12.0,
		"default_fontface" : 0,
		"default_fontname" : "Arial",
		"gridonopen" : 1,
		"gridsize" : [ 15.0, 15.0 ],
		"gridsnaponopen" : 1,
		"objectsnaponopen" : 1,
		"statusbarvisible" : 2,
		"toolbarvisible" : 1,
		"lefttoolbarpinned" : 0,
		"toptoolbarpinned" : 0,
		"righttoolbarpinned" : 0,
		"bottomtoolbarpinned" : 0,
		"toolbars_unpinned_last_save" : 0,
		"tallnewobj" : 0,
		"boxanimatetime" : 200,
		"enablehscroll" : 1,
		"enablevscroll" : 1,
		"devicewidth" : 0.0,
		"description" : "",
		"digest" : "",
		"tags" : "",
		"style" : "",
		"subpatcher_template" : "",
		"assistshowspatchername" : 0,
		"boxes" : [ 			{
				"box" : 				{
					"bgcolor" : [ 0.803922, 0.898039, 0.909804, 1.0 ],
					"id" : "obj-74",
					"linecount" : 2,
					"maxclass" : "comment",
					"numinlets" : 1,
					"numoutlets" : 0,
					"patching_rect" : [ -7.205183927636425, 1192.267815351486206, 150.0, 33.0 ],
					"presentation" : 1,
					"presentation_rect" : [ 0.70337924511091, 761.871000528335571, 167.0, 20.0 ],
					"text" : "EXTRAS (formes masques ?)"
				}

			}
, 			{
				"box" : 				{
					"id" : "obj-72",
					"maxclass" : "button",
					"numinlets" : 1,
					"numoutlets" : 1,
					"outlettype" : [ "bang" ],
					"parameter_enable" : 0,
					"patching_rect" : [ 1527.954548835754395, 77.0, 24.0, 24.0 ],
					"presentation" : 1,
					"presentation_rect" : [ 647.461273981953127, 787.333344221115112, 161.689473684210554, 161.689473684210554 ]
				}

			}
, 			{
				"box" : 				{
					"id" : "obj-73",
					"maxclass" : "message",
					"numinlets" : 2,
					"numoutlets" : 1,
					"outlettype" : [ "" ],
					"patching_rect" : [ 1527.954548835754395, 125.0, 29.5, 22.0 ],
					"presentation" : 1,
					"presentation_rect" : [ 672.844236123726546, 963.249748177994206, 29.5, 22.0 ],
					"text" : "25."
				}

			}
, 			{
				"box" : 				{
					"id" : "obj-64",
					"maxclass" : "button",
					"numinlets" : 1,
					"numoutlets" : 1,
					"outlettype" : [ "bang" ],
					"parameter_enable" : 0,
					"patching_rect" : [ 1493.954548835754395, 77.0, 24.0, 24.0 ],
					"presentation" : 1,
					"presentation_rect" : [ 485.771800297742573, 787.333344221115112, 161.689473684210554, 161.689473684210554 ]
				}

			}
, 			{
				"box" : 				{
					"id" : "obj-65",
					"maxclass" : "message",
					"numinlets" : 2,
					"numoutlets" : 1,
					"outlettype" : [ "" ],
					"patching_rect" : [ 1493.954548835754395, 125.0, 29.5, 22.0 ],
					"presentation" : 1,
					"presentation_rect" : [ 504.809021904072665, 961.249748177994206, 29.5, 22.0 ],
					"text" : "24."
				}

			}
, 			{
				"box" : 				{
					"id" : "obj-66",
					"maxclass" : "button",
					"numinlets" : 1,
					"numoutlets" : 1,
					"outlettype" : [ "bang" ],
					"parameter_enable" : 0,
					"patching_rect" : [ 1458.954548835754395, 77.0, 24.0, 24.0 ],
					"presentation" : 1,
					"presentation_rect" : [ 324.082326613532018, 787.333344221115112, 161.689473684210554, 161.689473684210554 ]
				}

			}
, 			{
				"box" : 				{
					"id" : "obj-67",
					"maxclass" : "message",
					"numinlets" : 2,
					"numoutlets" : 1,
					"outlettype" : [ "" ],
					"patching_rect" : [ 1460.871215502421137, 125.0, 29.5, 22.0 ],
					"presentation" : 1,
					"presentation_rect" : [ 336.773807684418728, 961.249748177994206, 29.5, 22.0 ],
					"text" : "23."
				}

			}
, 			{
				"box" : 				{
					"id" : "obj-68",
					"maxclass" : "button",
					"numinlets" : 1,
					"numoutlets" : 1,
					"outlettype" : [ "bang" ],
					"parameter_enable" : 0,
					"patching_rect" : [ 1424.454548835754395, 77.0, 24.0, 24.0 ],
					"presentation" : 1,
					"presentation_rect" : [ 162.392852929321464, 787.333344221115112, 161.689473684210554, 161.689473684210554 ]
				}

			}
, 			{
				"box" : 				{
					"id" : "obj-69",
					"maxclass" : "message",
					"numinlets" : 2,
					"numoutlets" : 1,
					"outlettype" : [ "" ],
					"patching_rect" : [ 1427.787882169087652, 125.0, 29.5, 22.0 ],
					"presentation" : 1,
					"presentation_rect" : [ 168.738593464764818, 961.249748177994206, 29.5, 22.0 ],
					"text" : "22."
				}

			}
, 			{
				"box" : 				{
					"id" : "obj-70",
					"maxclass" : "button",
					"numinlets" : 1,
					"numoutlets" : 1,
					"outlettype" : [ "bang" ],
					"parameter_enable" : 0,
					"patching_rect" : [ 1380.954548835754395, 77.0, 24.0, 24.0 ],
					"presentation" : 1,
					"presentation_rect" : [ 0.70337924511091, 787.333344221115112, 161.689473684210554, 161.689473684210554 ]
				}

			}
, 			{
				"box" : 				{
					"id" : "obj-71",
					"maxclass" : "message",
					"numinlets" : 2,
					"numoutlets" : 1,
					"outlettype" : [ "" ],
					"patching_rect" : [ 1380.954548835754395, 125.0, 29.5, 22.0 ],
					"presentation" : 1,
					"presentation_rect" : [ 0.70337924511091, 961.249748177994206, 29.5, 22.0 ],
					"text" : "21."
				}

			}
, 			{
				"box" : 				{
					"id" : "obj-62",
					"maxclass" : "button",
					"numinlets" : 1,
					"numoutlets" : 1,
					"outlettype" : [ "bang" ],
					"parameter_enable" : 0,
					"patching_rect" : [ 947.279366612434387, 77.0, 24.0, 24.0 ],
					"presentation" : 1,
					"presentation_rect" : [ 0.548116087216158, 300.863876223564148, 161.689473684210526, 161.689473684210526 ]
				}

			}
, 			{
				"box" : 				{
					"id" : "obj-63",
					"maxclass" : "message",
					"numinlets" : 2,
					"numoutlets" : 1,
					"outlettype" : [ "" ],
					"patching_rect" : [ 947.279366612434387, 125.0, 29.5, 22.0 ],
					"presentation" : 1,
					"presentation_rect" : [ 0.548116087216158, 474.863876223564148, 29.5, 22.0 ],
					"text" : "0."
				}

			}
, 			{
				"box" : 				{
					"id" : "obj-56",
					"maxclass" : "button",
					"numinlets" : 1,
					"numoutlets" : 1,
					"outlettype" : [ "bang" ],
					"parameter_enable" : 0,
					"patching_rect" : [ 1306.954548835754395, 77.0, 24.0, 24.0 ],
					"presentation" : 1,
					"presentation_rect" : [ 816.45688801704091, 538.222204089164734, 161.689473684210554, 161.689473684210554 ]
				}

			}
, 			{
				"box" : 				{
					"id" : "obj-57",
					"maxclass" : "message",
					"numinlets" : 2,
					"numoutlets" : 1,
					"outlettype" : [ "" ],
					"patching_rect" : [ 1306.954548835754395, 125.0, 29.5, 22.0 ],
					"presentation" : 1,
					"presentation_rect" : [ 815.226282799587125, 717.125435352325439, 29.5, 22.0 ],
					"text" : "10."
				}

			}
, 			{
				"box" : 				{
					"id" : "obj-58",
					"maxclass" : "button",
					"numinlets" : 1,
					"numoutlets" : 1,
					"outlettype" : [ "bang" ],
					"parameter_enable" : 0,
					"patching_rect" : [ 1271.954548835754395, 77.0, 24.0, 24.0 ],
					"presentation" : 1,
					"presentation_rect" : [ 653.306186262654933, 538.222204089164734, 161.689473684210554, 161.689473684210554 ]
				}

			}
, 			{
				"box" : 				{
					"id" : "obj-59",
					"maxclass" : "message",
					"numinlets" : 2,
					"numoutlets" : 1,
					"outlettype" : [ "" ],
					"patching_rect" : [ 1273.871215502421137, 125.0, 29.5, 22.0 ],
					"presentation" : 1,
					"presentation_rect" : [ 652.182006646175296, 717.125435352325439, 29.5, 22.0 ],
					"text" : "9."
				}

			}
, 			{
				"box" : 				{
					"id" : "obj-60",
					"maxclass" : "button",
					"numinlets" : 1,
					"numoutlets" : 1,
					"outlettype" : [ "bang" ],
					"parameter_enable" : 0,
					"patching_rect" : [ 1237.454548835754395, 77.0, 24.0, 24.0 ],
					"presentation" : 1,
					"presentation_rect" : [ 490.155484508268955, 538.222204089164734, 161.689473684210554, 161.689473684210554 ]
				}

			}
, 			{
				"box" : 				{
					"id" : "obj-61",
					"maxclass" : "message",
					"numinlets" : 2,
					"numoutlets" : 1,
					"outlettype" : [ "" ],
					"patching_rect" : [ 1240.787882169087652, 125.0, 29.5, 22.0 ],
					"presentation" : 1,
					"presentation_rect" : [ 489.137730492764376, 717.125435352325439, 29.5, 22.0 ],
					"text" : "8."
				}

			}
, 			{
				"box" : 				{
					"id" : "obj-34",
					"maxclass" : "button",
					"numinlets" : 1,
					"numoutlets" : 1,
					"outlettype" : [ "bang" ],
					"parameter_enable" : 0,
					"patching_rect" : [ 1193.954548835754395, 77.0, 24.0, 24.0 ],
					"presentation" : 1,
					"presentation_rect" : [ 327.004782753882921, 538.222204089164734, 161.689473684210554, 161.689473684210554 ]
				}

			}
, 			{
				"box" : 				{
					"id" : "obj-35",
					"maxclass" : "message",
					"numinlets" : 2,
					"numoutlets" : 1,
					"outlettype" : [ "" ],
					"patching_rect" : [ 1193.954548835754395, 125.0, 29.5, 22.0 ],
					"presentation" : 1,
					"presentation_rect" : [ 326.421361701251158, 712.222204089164734, 29.5, 22.0 ],
					"text" : "7."
				}

			}
, 			{
				"box" : 				{
					"id" : "obj-36",
					"maxclass" : "button",
					"numinlets" : 1,
					"numoutlets" : 1,
					"outlettype" : [ "bang" ],
					"parameter_enable" : 0,
					"patching_rect" : [ 1158.954548835754395, 77.0, 24.0, 24.0 ],
					"presentation" : 1,
					"presentation_rect" : [ 163.854080999496915, 538.222204089164734, 161.689473684210554, 161.689473684210554 ]
				}

			}
, 			{
				"box" : 				{
					"id" : "obj-38",
					"maxclass" : "message",
					"numinlets" : 2,
					"numoutlets" : 1,
					"outlettype" : [ "" ],
					"patching_rect" : [ 1160.871215502421137, 125.0, 29.5, 22.0 ],
					"presentation" : 1,
					"presentation_rect" : [ 164.342048835754099, 712.222204089164734, 29.5, 22.0 ],
					"text" : "6."
				}

			}
, 			{
				"box" : 				{
					"id" : "obj-42",
					"maxclass" : "button",
					"numinlets" : 1,
					"numoutlets" : 1,
					"outlettype" : [ "bang" ],
					"parameter_enable" : 0,
					"patching_rect" : [ 1124.454548835754395, 77.0, 24.0, 24.0 ],
					"presentation" : 1,
					"presentation_rect" : [ 0.70337924511091, 538.222204089164734, 161.689473684210554, 161.689473684210554 ]
				}

			}
, 			{
				"box" : 				{
					"id" : "obj-43",
					"maxclass" : "message",
					"numinlets" : 2,
					"numoutlets" : 1,
					"outlettype" : [ "" ],
					"patching_rect" : [ 1127.787882169087652, 125.0, 29.5, 22.0 ],
					"presentation" : 1,
					"presentation_rect" : [ 2.262735970256927, 712.222204089164734, 29.5, 22.0 ],
					"text" : "5."
				}

			}
, 			{
				"box" : 				{
					"id" : "obj-46",
					"maxclass" : "button",
					"numinlets" : 1,
					"numoutlets" : 1,
					"outlettype" : [ "bang" ],
					"parameter_enable" : 0,
					"patching_rect" : [ 1089.454548835754395, 77.0, 24.0, 24.0 ],
					"presentation" : 1,
					"presentation_rect" : [ 672.409898816539112, 300.863876223564148, 161.689473684210554, 161.689473684210554 ]
				}

			}
, 			{
				"box" : 				{
					"id" : "obj-47",
					"maxclass" : "message",
					"numinlets" : 2,
					"numoutlets" : 1,
					"outlettype" : [ "" ],
					"patching_rect" : [ 1094.704548835754395, 125.0, 29.5, 22.0 ],
					"presentation" : 1,
					"presentation_rect" : [ 653.990733989637192, 474.863876223564148, 29.5, 22.0 ],
					"text" : "4."
				}

			}
, 			{
				"box" : 				{
					"id" : "obj-48",
					"maxclass" : "button",
					"numinlets" : 1,
					"numoutlets" : 1,
					"outlettype" : [ "bang" ],
					"parameter_enable" : 0,
					"patching_rect" : [ 1054.454548835754395, 77.0, 24.0, 24.0 ],
					"presentation" : 1,
					"presentation_rect" : [ 504.444453134208402, 300.863876223564148, 161.689473684210554, 161.689473684210554 ]
				}

			}
, 			{
				"box" : 				{
					"id" : "obj-49",
					"maxclass" : "button",
					"numinlets" : 1,
					"numoutlets" : 1,
					"outlettype" : [ "bang" ],
					"parameter_enable" : 0,
					"patching_rect" : [ 1025.454548835754395, 77.0, 24.0, 24.0 ],
					"presentation" : 1,
					"presentation_rect" : [ 336.479007451877635, 300.863876223564148, 161.689473684210526, 161.689473684210526 ]
				}

			}
, 			{
				"box" : 				{
					"id" : "obj-50",
					"maxclass" : "button",
					"numinlets" : 1,
					"numoutlets" : 1,
					"outlettype" : [ "bang" ],
					"parameter_enable" : 0,
					"patching_rect" : [ 995.454548835754395, 77.0, 24.0, 24.0 ],
					"presentation" : 1,
					"presentation_rect" : [ 168.513561769546897, 300.863876223564148, 161.689473684210526, 161.689473684210526 ]
				}

			}
, 			{
				"box" : 				{
					"id" : "obj-51",
					"maxclass" : "message",
					"numinlets" : 2,
					"numoutlets" : 1,
					"outlettype" : [ "" ],
					"patching_rect" : [ 1061.62121550242091, 125.0, 29.5, 22.0 ],
					"presentation" : 1,
					"presentation_rect" : [ 491.911421124140134, 474.863876223564148, 29.5, 22.0 ],
					"text" : "3."
				}

			}
, 			{
				"box" : 				{
					"id" : "obj-52",
					"maxclass" : "message",
					"numinlets" : 2,
					"numoutlets" : 1,
					"outlettype" : [ "" ],
					"patching_rect" : [ 1028.537882169087879, 125.0, 29.5, 22.0 ],
					"presentation" : 1,
					"presentation_rect" : [ 329.832108258643075, 474.863876223564148, 29.5, 22.0 ],
					"text" : "2."
				}

			}
, 			{
				"box" : 				{
					"id" : "obj-53",
					"maxclass" : "newobj",
					"numinlets" : 1,
					"numoutlets" : 1,
					"outlettype" : [ "" ],
					"patching_rect" : [ 995.454548835754395, 229.0, 153.0, 22.0 ],
					"text" : "prepend /sceno/modeNeon"
				}

			}
, 			{
				"box" : 				{
					"id" : "obj-54",
					"maxclass" : "message",
					"numinlets" : 2,
					"numoutlets" : 1,
					"outlettype" : [ "" ],
					"patching_rect" : [ 995.454548835754395, 125.0, 29.5, 22.0 ],
					"presentation" : 1,
					"presentation_rect" : [ 167.752795393146016, 474.863876223564148, 29.5, 22.0 ],
					"text" : "1."
				}

			}
, 			{
				"box" : 				{
					"id" : "obj-55",
					"maxclass" : "newobj",
					"numinlets" : 1,
					"numoutlets" : 0,
					"patching_rect" : [ 995.454548835754395, 269.0, 62.0, 22.0 ],
					"text" : "s dataBus"
				}

			}
, 			{
				"box" : 				{
					"bgcolor" : [ 0.803922, 0.898039, 0.909804, 1.0 ],
					"id" : "obj-33",
					"maxclass" : "comment",
					"numinlets" : 1,
					"numoutlets" : 0,
					"patching_rect" : [ 995.454548835754395, 35.0, 150.0, 20.0 ],
					"presentation" : 1,
					"presentation_rect" : [ 0.70337924511091, 264.966200232505798, 977.378947368420995, 20.0 ],
					"text" : "Modes Bambous"
				}

			}
, 			{
				"box" : 				{
					"id" : "obj-45",
					"maxclass" : "newobj",
					"numinlets" : 2,
					"numoutlets" : 1,
					"outlettype" : [ "bang" ],
					"patching_rect" : [ 328.0, 112.0, 63.0, 22.0 ],
					"text" : "metro 250"
				}

			}
, 			{
				"box" : 				{
					"id" : "obj-44",
					"maxclass" : "toggle",
					"numinlets" : 1,
					"numoutlets" : 1,
					"outlettype" : [ "int" ],
					"parameter_enable" : 0,
					"patching_rect" : [ 328.0, 70.0, 24.0, 24.0 ]
				}

			}
, 			{
				"box" : 				{
					"bgcolor" : [ 0.313725490196078, 0.925490196078431, 1.0, 1.0 ],
					"fontface" : 1,
					"id" : "obj-18",
					"maxclass" : "comment",
					"numinlets" : 1,
					"numoutlets" : 0,
					"patching_rect" : [ 93.0, -1.413389682769775, 163.0, 20.0 ],
					"presentation" : 1,
					"presentation_rect" : [ 0.0, -0.413389682769775, 685.144022519964892, 20.0 ],
					"text" : "Animation Control",
					"textjustification" : 1
				}

			}
, 			{
				"box" : 				{
					"id" : "obj-13",
					"maxclass" : "newobj",
					"numinlets" : 2,
					"numoutlets" : 2,
					"outlettype" : [ "", "" ],
					"patching_rect" : [ -1.0, 14.0, 60.0, 22.0 ],
					"text" : "zl.change"
				}

			}
, 			{
				"box" : 				{
					"id" : "obj-12",
					"maxclass" : "newobj",
					"numinlets" : 8,
					"numoutlets" : 8,
					"outlettype" : [ "bang", "bang", "bang", "bang", "bang", "bang", "bang", "" ],
					"patching_rect" : [ -1.0, 66.0, 225.499999999999972, 22.0 ],
					"text" : "sel 1 2 3 4 5 6 7"
				}

			}
, 			{
				"box" : 				{
					"id" : "obj-8",
					"maxclass" : "newobj",
					"numinlets" : 1,
					"numoutlets" : 2,
					"outlettype" : [ "", "" ],
					"patching_rect" : [ -1.0, -33.0, 113.0, 22.0 ],
					"text" : "OSC-route /playSet"
				}

			}
, 			{
				"box" : 				{
					"id" : "obj-2",
					"maxclass" : "newobj",
					"numinlets" : 0,
					"numoutlets" : 1,
					"outlettype" : [ "" ],
					"patching_rect" : [ -1.0, -60.0, 121.0, 22.0 ],
					"text" : "r fromRemoteControl"
				}

			}
, 			{
				"box" : 				{
					"bgcolor" : [ 0.803922, 0.898039, 0.909804, 1.0 ],
					"id" : "obj-17",
					"maxclass" : "comment",
					"numinlets" : 1,
					"numoutlets" : 0,
					"patching_rect" : [ 4.0, 451.586610317230225, 150.0, 20.0 ],
					"presentation" : 1,
					"presentation_rect" : [ 523.454548835754395, 21.586610317230225, 161.689473684210498, 20.0 ],
					"text" : "Start Animation"
				}

			}
, 			{
				"box" : 				{
					"id" : "obj-10",
					"maxclass" : "button",
					"numinlets" : 1,
					"numoutlets" : 1,
					"outlettype" : [ "bang" ],
					"parameter_enable" : 0,
					"patching_rect" : [ 276.0, 101.0, 24.0, 24.0 ],
					"presentation" : 1,
					"presentation_rect" : [ 523.454548835754395, 68.0, 161.689473684210526, 161.689473684210526 ]
				}

			}
, 			{
				"box" : 				{
					"id" : "obj-14",
					"maxclass" : "newobj",
					"numinlets" : 1,
					"numoutlets" : 1,
					"outlettype" : [ "" ],
					"patching_rect" : [ 276.0, 200.0, 183.0, 22.0 ],
					"text" : "prepend /animation/startTimeline"
				}

			}
, 			{
				"box" : 				{
					"id" : "obj-15",
					"maxclass" : "message",
					"numinlets" : 2,
					"numoutlets" : 1,
					"outlettype" : [ "" ],
					"patching_rect" : [ 276.0, 149.0, 29.5, 22.0 ],
					"presentation" : 1,
					"presentation_rect" : [ 523.454548835754395, 44.0, 29.5, 22.0 ],
					"text" : "1"
				}

			}
, 			{
				"box" : 				{
					"id" : "obj-16",
					"maxclass" : "newobj",
					"numinlets" : 1,
					"numoutlets" : 0,
					"patching_rect" : [ 276.0, 240.0, 62.0, 22.0 ],
					"text" : "s dataBus"
				}

			}
, 			{
				"box" : 				{
					"id" : "obj-11",
					"maxclass" : "button",
					"numinlets" : 1,
					"numoutlets" : 1,
					"outlettype" : [ "bang" ],
					"parameter_enable" : 0,
					"patching_rect" : [ 58.0, 106.0, 24.0, 24.0 ],
					"presentation" : 1,
					"presentation_rect" : [ 324.378947368421052, 68.0, 161.689473684210554, 161.689473684210554 ]
				}

			}
, 			{
				"box" : 				{
					"id" : "obj-9",
					"maxclass" : "button",
					"numinlets" : 1,
					"numoutlets" : 1,
					"outlettype" : [ "bang" ],
					"parameter_enable" : 0,
					"patching_rect" : [ 29.0, 106.0, 24.0, 24.0 ],
					"presentation" : 1,
					"presentation_rect" : [ 161.689473684210526, 68.0, 161.689473684210526, 161.689473684210526 ]
				}

			}
, 			{
				"box" : 				{
					"id" : "obj-7",
					"maxclass" : "button",
					"numinlets" : 1,
					"numoutlets" : 1,
					"outlettype" : [ "bang" ],
					"parameter_enable" : 0,
					"patching_rect" : [ -1.0, 106.0, 24.0, 24.0 ],
					"presentation" : 1,
					"presentation_rect" : [ 0.0, 68.0, 161.689473684210526, 161.689473684210526 ]
				}

			}
, 			{
				"box" : 				{
					"bgcolor" : [ 0.803922, 0.898039, 0.909804, 1.0 ],
					"id" : "obj-363",
					"maxclass" : "comment",
					"numinlets" : 1,
					"numoutlets" : 0,
					"patching_rect" : [ 2010.058193743228912, 268.363414794206619, 150.0, 20.0 ],
					"presentation" : 1,
					"presentation_rect" : [ 0.0, 21.586610317230225, 486.068421052631606, 20.0 ],
					"text" : "Load Phase"
				}

			}
, 			{
				"box" : 				{
					"id" : "obj-6",
					"maxclass" : "message",
					"numinlets" : 2,
					"numoutlets" : 1,
					"outlettype" : [ "" ],
					"patching_rect" : [ 65.166666666666671, 154.0, 29.5, 22.0 ],
					"presentation" : 1,
					"presentation_rect" : [ 324.378947368421052, 44.0, 29.5, 22.0 ],
					"text" : "3"
				}

			}
, 			{
				"box" : 				{
					"id" : "obj-5",
					"maxclass" : "message",
					"numinlets" : 2,
					"numoutlets" : 1,
					"outlettype" : [ "" ],
					"patching_rect" : [ 32.083333333333336, 154.0, 29.5, 22.0 ],
					"presentation" : 1,
					"presentation_rect" : [ 161.689473684210526, 44.0, 29.5, 22.0 ],
					"text" : "2"
				}

			}
, 			{
				"box" : 				{
					"id" : "obj-4",
					"maxclass" : "newobj",
					"numinlets" : 1,
					"numoutlets" : 1,
					"outlettype" : [ "" ],
					"patching_rect" : [ -1.0, 258.0, 147.0, 22.0 ],
					"text" : "prepend /animation/phase"
				}

			}
, 			{
				"box" : 				{
					"id" : "obj-3",
					"maxclass" : "message",
					"numinlets" : 2,
					"numoutlets" : 1,
					"outlettype" : [ "" ],
					"patching_rect" : [ -1.0, 154.0, 29.5, 22.0 ],
					"presentation" : 1,
					"presentation_rect" : [ 0.0, 44.0, 29.5, 22.0 ],
					"text" : "1"
				}

			}
, 			{
				"box" : 				{
					"id" : "obj-1",
					"maxclass" : "newobj",
					"numinlets" : 1,
					"numoutlets" : 0,
					"patching_rect" : [ -1.0, 298.0, 62.0, 22.0 ],
					"text" : "s dataBus"
				}

			}
 ],
		"lines" : [ 			{
				"patchline" : 				{
					"destination" : [ "obj-15", 0 ],
					"source" : [ "obj-10", 0 ]
				}

			}
, 			{
				"patchline" : 				{
					"destination" : [ "obj-6", 0 ],
					"source" : [ "obj-11", 0 ]
				}

			}
, 			{
				"patchline" : 				{
					"destination" : [ "obj-11", 0 ],
					"source" : [ "obj-12", 2 ]
				}

			}
, 			{
				"patchline" : 				{
					"destination" : [ "obj-7", 0 ],
					"source" : [ "obj-12", 0 ]
				}

			}
, 			{
				"patchline" : 				{
					"destination" : [ "obj-9", 0 ],
					"source" : [ "obj-12", 1 ]
				}

			}
, 			{
				"patchline" : 				{
					"destination" : [ "obj-12", 0 ],
					"source" : [ "obj-13", 0 ]
				}

			}
, 			{
				"patchline" : 				{
					"destination" : [ "obj-16", 0 ],
					"source" : [ "obj-14", 0 ]
				}

			}
, 			{
				"patchline" : 				{
					"destination" : [ "obj-14", 0 ],
					"source" : [ "obj-15", 0 ]
				}

			}
, 			{
				"patchline" : 				{
					"destination" : [ "obj-8", 0 ],
					"source" : [ "obj-2", 0 ]
				}

			}
, 			{
				"patchline" : 				{
					"destination" : [ "obj-4", 0 ],
					"source" : [ "obj-3", 0 ]
				}

			}
, 			{
				"patchline" : 				{
					"destination" : [ "obj-35", 0 ],
					"source" : [ "obj-34", 0 ]
				}

			}
, 			{
				"patchline" : 				{
					"destination" : [ "obj-53", 0 ],
					"source" : [ "obj-35", 0 ]
				}

			}
, 			{
				"patchline" : 				{
					"destination" : [ "obj-38", 0 ],
					"source" : [ "obj-36", 0 ]
				}

			}
, 			{
				"patchline" : 				{
					"destination" : [ "obj-53", 0 ],
					"source" : [ "obj-38", 0 ]
				}

			}
, 			{
				"patchline" : 				{
					"destination" : [ "obj-1", 0 ],
					"source" : [ "obj-4", 0 ]
				}

			}
, 			{
				"patchline" : 				{
					"destination" : [ "obj-43", 0 ],
					"source" : [ "obj-42", 0 ]
				}

			}
, 			{
				"patchline" : 				{
					"destination" : [ "obj-53", 0 ],
					"source" : [ "obj-43", 0 ]
				}

			}
, 			{
				"patchline" : 				{
					"destination" : [ "obj-45", 0 ],
					"source" : [ "obj-44", 0 ]
				}

			}
, 			{
				"patchline" : 				{
					"destination" : [ "obj-15", 0 ],
					"source" : [ "obj-45", 0 ]
				}

			}
, 			{
				"patchline" : 				{
					"destination" : [ "obj-47", 0 ],
					"source" : [ "obj-46", 0 ]
				}

			}
, 			{
				"patchline" : 				{
					"destination" : [ "obj-53", 0 ],
					"source" : [ "obj-47", 0 ]
				}

			}
, 			{
				"patchline" : 				{
					"destination" : [ "obj-51", 0 ],
					"source" : [ "obj-48", 0 ]
				}

			}
, 			{
				"patchline" : 				{
					"destination" : [ "obj-52", 0 ],
					"source" : [ "obj-49", 0 ]
				}

			}
, 			{
				"patchline" : 				{
					"destination" : [ "obj-4", 0 ],
					"source" : [ "obj-5", 0 ]
				}

			}
, 			{
				"patchline" : 				{
					"destination" : [ "obj-54", 0 ],
					"source" : [ "obj-50", 0 ]
				}

			}
, 			{
				"patchline" : 				{
					"destination" : [ "obj-53", 0 ],
					"source" : [ "obj-51", 0 ]
				}

			}
, 			{
				"patchline" : 				{
					"destination" : [ "obj-53", 0 ],
					"source" : [ "obj-52", 0 ]
				}

			}
, 			{
				"patchline" : 				{
					"destination" : [ "obj-55", 0 ],
					"source" : [ "obj-53", 0 ]
				}

			}
, 			{
				"patchline" : 				{
					"destination" : [ "obj-53", 0 ],
					"source" : [ "obj-54", 0 ]
				}

			}
, 			{
				"patchline" : 				{
					"destination" : [ "obj-57", 0 ],
					"source" : [ "obj-56", 0 ]
				}

			}
, 			{
				"patchline" : 				{
					"destination" : [ "obj-53", 0 ],
					"source" : [ "obj-57", 0 ]
				}

			}
, 			{
				"patchline" : 				{
					"destination" : [ "obj-59", 0 ],
					"source" : [ "obj-58", 0 ]
				}

			}
, 			{
				"patchline" : 				{
					"destination" : [ "obj-53", 0 ],
					"source" : [ "obj-59", 0 ]
				}

			}
, 			{
				"patchline" : 				{
					"destination" : [ "obj-4", 0 ],
					"source" : [ "obj-6", 0 ]
				}

			}
, 			{
				"patchline" : 				{
					"destination" : [ "obj-61", 0 ],
					"source" : [ "obj-60", 0 ]
				}

			}
, 			{
				"patchline" : 				{
					"destination" : [ "obj-53", 0 ],
					"source" : [ "obj-61", 0 ]
				}

			}
, 			{
				"patchline" : 				{
					"destination" : [ "obj-63", 0 ],
					"source" : [ "obj-62", 0 ]
				}

			}
, 			{
				"patchline" : 				{
					"destination" : [ "obj-53", 0 ],
					"source" : [ "obj-63", 0 ]
				}

			}
, 			{
				"patchline" : 				{
					"destination" : [ "obj-65", 0 ],
					"source" : [ "obj-64", 0 ]
				}

			}
, 			{
				"patchline" : 				{
					"destination" : [ "obj-53", 0 ],
					"source" : [ "obj-65", 0 ]
				}

			}
, 			{
				"patchline" : 				{
					"destination" : [ "obj-67", 0 ],
					"source" : [ "obj-66", 0 ]
				}

			}
, 			{
				"patchline" : 				{
					"destination" : [ "obj-53", 0 ],
					"source" : [ "obj-67", 0 ]
				}

			}
, 			{
				"patchline" : 				{
					"destination" : [ "obj-69", 0 ],
					"source" : [ "obj-68", 0 ]
				}

			}
, 			{
				"patchline" : 				{
					"destination" : [ "obj-53", 0 ],
					"source" : [ "obj-69", 0 ]
				}

			}
, 			{
				"patchline" : 				{
					"destination" : [ "obj-3", 0 ],
					"source" : [ "obj-7", 0 ]
				}

			}
, 			{
				"patchline" : 				{
					"destination" : [ "obj-71", 0 ],
					"source" : [ "obj-70", 0 ]
				}

			}
, 			{
				"patchline" : 				{
					"destination" : [ "obj-53", 0 ],
					"source" : [ "obj-71", 0 ]
				}

			}
, 			{
				"patchline" : 				{
					"destination" : [ "obj-73", 0 ],
					"source" : [ "obj-72", 0 ]
				}

			}
, 			{
				"patchline" : 				{
					"destination" : [ "obj-53", 0 ],
					"source" : [ "obj-73", 0 ]
				}

			}
, 			{
				"patchline" : 				{
					"destination" : [ "obj-13", 0 ],
					"source" : [ "obj-8", 0 ]
				}

			}
, 			{
				"patchline" : 				{
					"destination" : [ "obj-5", 0 ],
					"source" : [ "obj-9", 0 ]
				}

			}
 ]
	}

}
